  <svg xmlns="http://www.w3.org/2000/svg" width="30" height="30" viewBox="0 0 48 48" fill="none">
                    <path fill-rule="evenodd" clip-rule="evenodd" d="M24 4C13.06 4 4 13.06 4 24C4 33.04 10.06 40.5 18.5 42.98C19.46 43.14 19.8 42.6 19.8 42.14C19.8 41.74 19.78 40.7 19.78 39.56C14.14 40.66 12.42 37.7 12.42 37.7C11.5 35.6 10.22 35.04 10.22 35.04C8.34 33.84 10.38 33.86 10.38 33.86C12.5 33.98 13.64 36.02 13.64 36.02C15.48 39.14 18.66 38.2 19.92 37.66C20.12 36.4 20.66 35.5 21.26 35.04C16.06 34.56 10.8 32.46 10.8 23.14C10.8 20.54 11.7 18.44 13.14 16.88C12.9 16.32 12.2 14.34 13.38 11.66C13.38 11.66 15.32 11.12 19.78 13.8C21.6 13.26 23.52 13 25.44 13C27.36 13 29.28 13.26 31.1 13.8C35.56 11.1 37.5 11.66 37.5 11.66C38.68 14.34 37.98 16.32 37.74 16.88C39.18 18.44 40.08 20.54 40.08 23.14C40.08 32.5 34.8 34.54 29.58 35.02C30.4 35.64 31.12 36.9 31.12 38.82C31.12 41.62 31.1 43.44 31.1 44.14C31.1 44.6 31.44 45.14 32.42 44.98C40.84 40.5 47 33.04 47 24C47 13.06 37.94 4 24 4Z" fill="#1e5dc6"/>
                </svg>