<?xml version="1.0" encoding="UTF-8"?>
<svg xmlns="http://www.w3.org/2000/svg" xmlns:xlink="http://www.w3.org/1999/xlink" width="50px" height="50px" viewBox="0 0 50 50" version="1.1">
<defs>
<filter id="alpha" filterUnits="objectBoundingBox" x="0%" y="0%" width="100%" height="100%">
  <feColorMatrix type="matrix" in="SourceGraphic" values="0 0 0 0 1 0 0 0 0 1 0 0 0 0 1 0 0 0 1 0"/>
</filter>
<mask id="mask0">
  <g filter="url(#alpha)">
<rect x="0" y="0" width="50" height="50" style="fill:rgb(0%,0%,0%);fill-opacity:0.886275;stroke:none;"/>
  </g>
</mask>
<clipPath id="clip1">
  <rect x="0" y="0" width="50" height="50"/>
</clipPath>
<g id="surface5" clip-path="url(#clip1)">
<path style=" stroke:none;fill-rule:evenodd;fill:rgb(15.294118%,14.117648%,17.647059%);fill-opacity:1;" d="M 7.25 6.75 C 18.917969 6.75 30.582031 6.75 42.25 6.75 C 41.167969 18.074219 40.082031 29.410156 39 40.75 C 34.378906 42.507812 29.628906 43.84375 24.75 44.75 C 19.914062 43.6875 15.164062 42.355469 10.5 40.75 C 9.460938 29.398438 8.378906 18.066406 7.25 6.75 Z M 7.25 6.75 "/>
</g>
</defs>
<g id="surface1">
<use xlink:href="#surface5" mask="url(#mask0)"/>
<path style=" stroke:none;fill-rule:evenodd;fill:rgb(94.117647%,55.686277%,44.313726%);fill-opacity:1;" d="M 8.75 7.75 C 19.417969 7.75 30.082031 7.75 40.75 7.75 C 39.707031 18.398438 38.789062 29.066406 38 39.75 C 33.621094 41.125 29.203125 42.460938 24.75 43.75 C 20.246094 42.664062 15.828125 41.332031 11.5 39.75 C 10.710938 29.0625 9.792969 18.398438 8.75 7.75 Z M 8.75 7.75 "/>
<path style=" stroke:none;fill-rule:evenodd;fill:rgb(12.54902%,12.941177%,16.862746%);fill-opacity:1;" d="M 24.75 9.75 C 29.25 9.75 33.75 9.75 38.25 9.75 C 38.25 10.582031 38.25 11.417969 38.25 12.25 C 38.082031 12.25 37.917969 12.25 37.75 12.25 C 37.75 11.582031 37.75 10.917969 37.75 10.25 C 33.582031 10.25 29.417969 10.25 25.25 10.25 C 24.917969 10.25 24.75 10.082031 24.75 9.75 Z M 24.75 9.75 "/>
<path style=" stroke:none;fill-rule:evenodd;fill:rgb(53.725493%,28.235295%,27.450982%);fill-opacity:1;" d="M 24.75 9.75 C 24.75 10.082031 24.917969 10.25 25.25 10.25 C 25.382812 11.050781 25.21875 11.714844 24.75 12.25 C 24.082031 11.417969 24.082031 10.582031 24.75 9.75 Z M 24.75 9.75 "/>
<path style=" stroke:none;fill-rule:evenodd;fill:rgb(89.803922%,33.333334%,32.549021%);fill-opacity:1;" d="M 25.25 10.25 C 29.417969 10.25 33.582031 10.25 37.75 10.25 C 37.75 10.917969 37.75 11.582031 37.75 12.25 C 36.820312 20.742188 35.902344 29.242188 35 37.75 C 34.347656 38.042969 33.765625 38.375 33.25 38.75 C 32.917969 38.75 32.582031 38.75 32.25 38.75 C 31.488281 38.714844 30.988281 39.046875 30.75 39.75 C 30.417969 39.75 30.082031 39.75 29.75 39.75 C 28.34375 39.773438 27.011719 40.105469 25.75 40.75 C 25.128906 39.230469 25.128906 37.730469 25.75 36.25 C 28.269531 36.074219 30.601562 35.40625 32.75 34.25 C 32.796875 30.410156 32.964844 26.578125 33.25 22.75 C 30.679688 22.257812 28.011719 22.089844 25.25 22.25 C 25.382812 21.449219 25.21875 20.785156 24.75 20.25 C 24.75 19.917969 24.75 19.582031 24.75 19.25 C 27.75 19.25 30.75 19.25 33.75 19.25 C 33.75 17.75 33.75 16.25 33.75 14.75 C 30.917969 14.75 28.082031 14.75 25.25 14.75 C 25.1875 13.890625 25.019531 13.058594 24.75 12.25 C 25.21875 11.714844 25.382812 11.050781 25.25 10.25 Z M 25.25 10.25 "/>
<path style=" stroke:none;fill-rule:evenodd;fill:rgb(21.176471%,18.431373%,21.568628%);fill-opacity:1;" d="M 25.25 14.75 C 28.082031 14.75 30.917969 14.75 33.75 14.75 C 33.75 16.25 33.75 17.75 33.75 19.25 C 30.75 19.25 27.75 19.25 24.75 19.25 C 23.25 19.25 21.75 19.25 20.25 19.25 C 20.25 19.75 20.25 20.25 20.25 20.75 C 20.082031 20.75 19.917969 20.75 19.75 20.75 C 19.75 20.082031 19.75 19.417969 19.75 18.75 C 24.25 18.75 28.75 18.75 33.25 18.75 C 33.25 17.582031 33.25 16.417969 33.25 15.25 C 27.582031 15.25 21.917969 15.25 16.25 15.25 C 16.25 16.25 16.25 17.25 16.25 18.25 C 16.25 18.582031 16.082031 18.75 15.75 18.75 C 15.75 17.417969 15.75 16.082031 15.75 14.75 C 18.917969 14.75 22.082031 14.75 25.25 14.75 Z M 25.25 14.75 "/>
<path style=" stroke:none;fill-rule:evenodd;fill:rgb(93.725491%,55.29412%,44.313726%);fill-opacity:1;" d="M 24.75 19.25 C 24.75 19.582031 24.75 19.917969 24.75 20.25 C 24.28125 20.785156 24.117188 21.449219 24.25 22.25 C 23.082031 22.25 21.917969 22.25 20.75 22.25 C 20.296875 21.894531 20.132812 21.394531 20.25 20.75 C 20.25 20.25 20.25 19.75 20.25 19.25 C 21.75 19.25 23.25 19.25 24.75 19.25 Z M 24.75 19.25 "/>
<path style=" stroke:none;fill-rule:evenodd;fill:rgb(43.529412%,25.882354%,25.490198%);fill-opacity:1;" d="M 37.75 12.25 C 37.917969 12.25 38.082031 12.25 38.25 12.25 C 37.535156 20.925781 36.703125 29.59375 35.75 38.25 C 34.96875 38.535156 34.21875 38.871094 33.5 39.25 C 33.300781 39.136719 33.21875 38.96875 33.25 38.75 C 33.765625 38.375 34.347656 38.042969 35 37.75 C 35.902344 29.242188 36.820312 20.742188 37.75 12.25 Z M 37.75 12.25 "/>
<path style=" stroke:none;fill-rule:evenodd;fill:rgb(55.686277%,42.352942%,38.82353%);fill-opacity:1;" d="M 16.25 18.25 C 16.738281 19.472656 16.902344 20.808594 16.75 22.25 C 16.417969 22.25 16.25 22.417969 16.25 22.75 C 15.761719 21.527344 15.597656 20.191406 15.75 18.75 C 16.082031 18.75 16.25 18.582031 16.25 18.25 Z M 16.25 18.25 "/>
<path style=" stroke:none;fill-rule:evenodd;fill:rgb(61.56863%,28.235295%,27.843139%);fill-opacity:1;" d="M 24.75 20.25 C 25.21875 20.785156 25.382812 21.449219 25.25 22.25 C 28.011719 22.089844 30.679688 22.257812 33.25 22.75 C 28.992188 22.914062 24.824219 22.746094 20.75 22.25 C 21.917969 22.25 23.082031 22.25 24.25 22.25 C 24.117188 21.449219 24.28125 20.785156 24.75 20.25 Z M 24.75 20.25 "/>
<path style=" stroke:none;fill-rule:evenodd;fill:rgb(37.254903%,34.901962%,36.078432%);fill-opacity:1;" d="M 19.75 20.75 C 19.917969 20.75 20.082031 20.75 20.25 20.75 C 20.132812 21.394531 20.296875 21.894531 20.75 22.25 C 24.824219 22.746094 28.992188 22.914062 33.25 22.75 C 32.964844 26.578125 32.796875 30.410156 32.75 34.25 C 32.417969 34.25 32.082031 34.25 31.75 34.25 C 32.191406 30.617188 32.527344 26.949219 32.75 23.25 C 28.578125 23.332031 24.414062 23.25 20.25 23 C 19.808594 22.320312 19.644531 21.570312 19.75 20.75 Z M 19.75 20.75 "/>
<path style=" stroke:none;fill-rule:evenodd;fill:rgb(96.470588%,96.078432%,90.196079%);fill-opacity:1;" d="M 19.75 20.75 C 19.644531 21.570312 19.808594 22.320312 20.25 23 C 24.414062 23.25 28.578125 23.332031 32.75 23.25 C 32.527344 26.949219 32.191406 30.617188 31.75 34.25 C 29.609375 34.628906 27.609375 35.296875 25.75 36.25 C 25.417969 36.25 25.082031 36.25 24.75 36.25 C 24.75 35.082031 24.75 33.917969 24.75 32.75 C 26.101562 32.554688 27.269531 32.054688 28.25 31.25 C 28.417969 31.25 28.582031 31.25 28.75 31.25 C 29.238281 29.6875 29.40625 28.019531 29.25 26.25 C 25.082031 26.25 20.917969 26.25 16.75 26.25 C 16.75 24.917969 16.75 23.582031 16.75 22.25 C 16.902344 20.808594 16.738281 19.472656 16.25 18.25 C 16.25 17.25 16.25 16.25 16.25 15.25 C 21.917969 15.25 27.582031 15.25 33.25 15.25 C 33.25 16.417969 33.25 17.582031 33.25 18.75 C 28.75 18.75 24.25 18.75 19.75 18.75 C 19.75 19.417969 19.75 20.082031 19.75 20.75 Z M 19.75 20.75 "/>
<path style=" stroke:none;fill-rule:evenodd;fill:rgb(46.27451%,38.82353%,37.64706%);fill-opacity:1;" d="M 16.75 22.25 C 16.75 23.582031 16.75 24.917969 16.75 26.25 C 20.917969 26.25 25.082031 26.25 29.25 26.25 C 29.40625 28.019531 29.238281 29.6875 28.75 31.25 C 28.75 29.917969 28.75 28.582031 28.75 27.25 C 27.417969 27.25 26.082031 27.25 24.75 27.25 C 21.917969 27.25 19.082031 27.25 16.25 27.25 C 16.25 25.75 16.25 24.25 16.25 22.75 C 16.25 22.417969 16.417969 22.25 16.75 22.25 Z M 16.75 22.25 "/>
<path style=" stroke:none;fill-rule:evenodd;fill:rgb(86.666667%,32.549021%,31.764707%);fill-opacity:1;" d="M 24.75 27.25 C 26.082031 27.25 27.417969 27.25 28.75 27.25 C 28.75 28.582031 28.75 29.917969 28.75 31.25 C 28.582031 31.25 28.417969 31.25 28.25 31.25 C 27.25 31.417969 26.25 31.582031 25.25 31.75 C 25.402344 30.46875 25.234375 29.304688 24.75 28.25 C 24.75 27.917969 24.75 27.582031 24.75 27.25 Z M 24.75 27.25 "/>
<path style=" stroke:none;fill-rule:evenodd;fill:rgb(45.09804%,34.509805%,33.333334%);fill-opacity:1;" d="M 24.75 28.25 C 25.234375 29.304688 25.402344 30.46875 25.25 31.75 C 26.25 31.582031 27.25 31.417969 28.25 31.25 C 27.269531 32.054688 26.101562 32.554688 24.75 32.75 C 23.410156 32.386719 22.078125 31.96875 20.75 31.5 C 20.308594 30.820312 20.144531 30.070312 20.25 29.25 C 19.25 29.25 18.25 29.25 17.25 29.25 C 17.167969 30.757812 17.25 32.257812 17.5 33.75 C 18.152344 34.042969 18.734375 34.375 19.25 34.75 C 18.429688 34.855469 17.679688 34.691406 17 34.25 C 16.679688 32.253906 16.429688 30.253906 16.25 28.25 C 17.757812 28.167969 19.257812 28.25 20.75 28.5 C 21.203125 29.351562 21.371094 30.265625 21.25 31.25 C 22.25 31.417969 23.25 31.582031 24.25 31.75 C 24.097656 30.46875 24.265625 29.304688 24.75 28.25 Z M 24.75 28.25 "/>
<path style=" stroke:none;fill-rule:evenodd;fill:rgb(90.588236%,89.803922%,82.745099%);fill-opacity:1;" d="M 24.75 32.75 C 24.75 33.917969 24.75 35.082031 24.75 36.25 C 24.417969 36.25 24.082031 36.25 23.75 36.25 C 23.105469 36.367188 22.605469 36.203125 22.25 35.75 C 21.503906 34.859375 20.503906 34.527344 19.25 34.75 C 18.734375 34.375 18.152344 34.042969 17.5 33.75 C 17.25 32.257812 17.167969 30.757812 17.25 29.25 C 18.25 29.25 19.25 29.25 20.25 29.25 C 20.144531 30.070312 20.308594 30.820312 20.75 31.5 C 22.078125 31.96875 23.410156 32.386719 24.75 32.75 Z M 24.75 32.75 "/>
<path style=" stroke:none;fill-rule:evenodd;fill:rgb(48.235294%,45.882353%,44.313726%);fill-opacity:1;" d="M 19.25 34.75 C 20.503906 34.527344 21.503906 34.859375 22.25 35.75 C 21.105469 35.703125 20.105469 35.371094 19.25 34.75 Z M 19.25 34.75 "/>
<path style=" stroke:none;fill-rule:evenodd;fill:rgb(58.431375%,27.843139%,28.235295%);fill-opacity:1;" d="M 31.75 34.25 C 32.082031 34.25 32.417969 34.25 32.75 34.25 C 30.601562 35.40625 28.269531 36.074219 25.75 36.25 C 27.609375 35.296875 29.609375 34.628906 31.75 34.25 Z M 31.75 34.25 "/>
<path style=" stroke:none;fill-rule:evenodd;fill:rgb(43.137255%,25.490198%,25.098041%);fill-opacity:1;" d="M 32.25 38.75 C 32.011719 39.453125 31.511719 39.785156 30.75 39.75 C 30.988281 39.046875 31.488281 38.714844 32.25 38.75 Z M 32.25 38.75 "/>
<path style=" stroke:none;fill-rule:evenodd;fill:rgb(43.137255%,25.882354%,25.490198%);fill-opacity:1;" d="M 23.75 36.25 C 24.082031 36.25 24.417969 36.25 24.75 36.25 C 25.082031 36.25 25.417969 36.25 25.75 36.25 C 25.128906 37.730469 25.128906 39.230469 25.75 40.75 C 27.011719 40.105469 28.34375 39.773438 29.75 39.75 C 28.101562 40.742188 26.265625 41.242188 24.25 41.25 C 24.375 39.53125 24.207031 37.863281 23.75 36.25 Z M 23.75 36.25 "/>
</g>
</svg>
