                <svg xmlns="http://www.w3.org/2000/svg" width="30" height="30" viewBox="0 0 48 48" fill="none">
                    <rect width="48" height="48" rx="8" fill="#0077B5"/>
                    <path d="M14 19H19V34H14V19ZM16.5 14C15.1 14 14 15.1 14 16.5C14 17.9 15.1 19 16.5 19C17.9 19 19 17.9 19 16.5C19 15.1 17.9 14 16.5 14ZM22 19H26.5V21.7C27.3 20.3 28.6 19 31 19C36 19 36 22.7 36 27.2V34H31V27.5C31 26 31 24 29 24C27 24 27 25.7 27 27.4V34H22V19Z" fill="white"/>
                </svg>